External Loads File
version=1
nRows=30
nColumns=13
Range=5.000000e-03-10 seconds
endheader
time 	forceRightX 	forceRightY 	forceRightZ 	pointRightX 	pointRightY 	pointRightZ 	forceLeftX 	forceLeftY 	forceLeftZ 	pointLeftX 	pointLeftY 	pointLeftZ 		
2.505000 176.554187 294.360907 -0.000000 0.233752 0.160631 -0.146518 -109.614959 30.028136 -0.000000 0.332306 0.496372 -0.382196
2.510000 154.229243 206.096844 -0.000000 0.225937 0.164270 -0.146649 -105.315188 63.443928 -0.000000 0.339688 0.493134 -0.382425
2.515000 130.969216 126.267703 -0.000000 0.218050 0.168535 -0.146585 -101.790423 98.647313 -0.000000 0.346712 0.489283 -0.382562
2.520000 107.699130 56.296493 -0.000000 0.210187 0.173300 -0.146641 -99.693011 135.751680 -0.000000 0.353379 0.484735 -0.382820
2.525000 85.363517 -3.066989 -0.000000 0.202375 0.178610 -0.146810 -99.557713 175.032803 -0.000000 0.359732 0.479428 -0.383097
2.530000 64.746316 -51.524735 -0.000000 0.194692 0.184530 -0.146937 -101.794647 216.755725 -0.000000 0.365714 0.473376 -0.383341
2.535000 46.447877 -89.170585 -0.000000 0.187206 0.190823 -0.147160 -106.445819 261.149917 -0.000000 0.371685 0.466660 -0.383836
2.540000 30.989931 -116.293035 -0.000000 0.180057 0.197650 -0.147219 -113.500349 308.171233 -0.000000 0.377329 0.459283 -0.384141
2.545000 18.758856 -133.484453 -0.000000 0.173253 0.204928 -0.147372 -122.554164 357.620461 -0.000000 0.382607 0.451399 -0.384453
2.550000 9.976336 -141.641403 -0.000000 0.166920 0.212514 -0.147527 -132.915850 409.063085 -0.000000 0.387674 0.443069 -0.384607
2.555000 4.760493 -141.968675 -0.000000 0.161153 0.220362 -0.147555 -143.948508 461.792446 -0.000000 0.392394 0.434352 -0.384662
2.560000 2.958594 -135.933149 -0.000000 0.155852 0.228466 -0.147584 -154.742970 515.074839 -0.000000 0.396717 0.425334 -0.384905
2.565000 4.204129 -125.145884 -0.000000 0.151170 0.236896 -0.147293 -164.328854 568.204223 -0.000000 0.400786 0.416015 -0.384709
2.570000 7.984326 -111.259387 -0.000000 0.147081 0.245658 -0.147234 -171.917670 620.545065 -0.000000 0.404500 0.406354 -0.384468
2.575000 13.725690 -95.853456 -0.000000 0.143562 0.254622 -0.147132 -177.401054 671.437225 -0.000000 0.407766 0.396471 -0.384207
2.580000 20.617283 -80.314050 -0.000000 0.140583 0.263832 -0.146988 -180.170444 720.491980 -0.000000 0.410683 0.386327 -0.383916
2.585000 27.899327 -65.708147 -0.000000 0.138240 0.273255 -0.146879 -180.303552 767.260022 -0.000000 0.413245 0.375959 -0.383634
2.590000 34.864939 -52.766592 -0.000000 0.136354 0.282821 -0.146728 -178.060161 811.380058 -0.000000 0.415348 0.365447 -0.383316
2.595000 40.929064 -41.961060 -0.000000 0.134546 0.292609 -0.147092 -173.439143 852.657856 -0.000000 0.417018 0.354903 -0.383007
2.600000 45.758170 -33.510084 -0.000000 0.133861 0.302310 -0.146946 -168.143362 890.694753 -0.000000 0.418176 0.344248 -0.382783
2.605000 49.017346 -27.679281 -0.000000 0.133742 0.312260 -0.146823 -161.475059 925.795270 -0.000000 0.418850 0.333588 -0.382499
2.610000 50.475652 -24.643091 -0.000000 0.134048 0.322357 -0.146774 -154.187263 958.241148 -0.000000 0.419267 0.322914 -0.382304
2.615000 49.880950 -24.518569 -0.000000 0.135026 0.332592 -0.146785 -147.013727 988.600495 -0.000000 0.418744 0.312252 -0.382469
2.620000 46.996217 -27.269652 -0.000000 0.136300 0.342829 -0.146864 -140.882151 1017.580269 -0.000000 0.418034 0.301596 -0.382300
2.625000 41.643371 -32.666515 -0.000000 0.138284 0.353101 -0.146993 -135.933677 1046.036202 -0.000000 0.416728 0.291014 -0.382440
2.630000 33.785031 -40.234912 -0.000000 0.140934 0.363669 -0.147041 -131.532449 1074.837078 -0.000000 0.415031 0.280618 -0.382562
2.635000 23.687648 -49.213573 -0.000000 0.143996 0.374046 -0.147179 -128.651674 1104.411831 -0.000000 0.412836 0.270326 -0.382636
2.640000 11.805534 -58.774255 -0.000000 0.147598 0.384344 -0.147241 -126.166732 1135.064658 -0.000000 0.410145 0.260238 -0.382655
2.645000 -1.214681 -68.033328 -0.000000 0.151774 0.394514 -0.147309 -123.043445 1166.628275 -0.000000 0.406828 0.250452 -0.382618
2.650000 -14.574060 -76.182929 -0.000000 0.156552 0.404323 -0.147318 -118.941695 1198.399035 -0.000000 0.403060 0.240988 -0.382272
